<svg xmlns="http://www.w3.org/2000/svg" width="192" height="192" viewBox="0 0 192 192" fill="none"><rect width="192" height="192" rx="48" fill="#F8FAFC"/><rect x="24" y="24" width="144" height="144" rx="36" fill="url(#a)"/><path d="M59 67.5C59 61.149 64.149 56 70.5 56H121.5C127.851 56 133 61.149 133 67.5V123.5C133 129.851 127.851 135 121.5 135H70.5C64.149 135 59 129.851 59 123.5V67.5Z" fill="white" fill-opacity=".94"/><path d="M72 48C72 44.686 74.686 42 78 42C81.314 42 84 44.686 84 48V60C84 63.314 81.314 66 78 66C74.686 66 72 63.314 72 60V48Z" fill="#A78BFA"/><path d="M108 48C108 44.686 110.686 42 114 42C117.314 42 120 44.686 120 48V60C120 63.314 117.314 66 114 66C110.686 66 108 63.314 108 60V48Z" fill="#A78BFA"/><path d="M59 78H133V91H59V78Z" fill="#EDE9FE"/><rect x="72" y="103" width="18" height="18" rx="6" fill="#7C3AED"/><rect x="96" y="103" width="24" height="8" rx="4" fill="#C4B5FD"/><rect x="96" y="115" width="17" height="8" rx="4" fill="#DDD6FE"/><circle cx="122" cy="126" r="22" fill="#06B6D4"/><path d="M121.999 114C122.883 114 123.6 114.716 123.6 115.6V125.337L129.653 128.832C130.419 129.274 130.681 130.254 130.238 131.02C129.796 131.785 128.816 132.048 128.05 131.605L121.199 127.649C120.704 127.363 120.399 126.834 120.399 126.262V115.6C120.399 114.716 121.116 114 121.999 114Z" fill="white"/><defs><linearGradient id="a" x1="36" y1="24" x2="156" y2="168" gradientUnits="userSpaceOnUse"><stop stop-color="#8B5CF6"/><stop offset="1" stop-color="#06B6D4"/></linearGradient></defs></svg>