<svg xmlns="http://www.w3.org/2000/svg" width="512" height="512" viewBox="0 0 512 512" fill="none"><rect width="512" height="512" rx="128" fill="#F8FAFC"/><rect x="64" y="64" width="384" height="384" rx="96" fill="url(#a)"/><path d="M157.333 180C157.333 163.063 171.063 149.333 188 149.333H324C340.937 149.333 354.667 163.063 354.667 180V329.333C354.667 346.27 340.937 360 324 360H188C171.063 360 157.333 346.27 157.333 329.333V180Z" fill="white" fill-opacity=".95"/><path d="M192 128C192 119.163 199.163 112 208 112C216.837 112 224 119.163 224 128V160C224 168.837 216.837 176 208 176C199.163 176 192 168.837 192 160V128Z" fill="#A78BFA"/><path d="M288 128C288 119.163 295.163 112 304 112C312.837 112 320 119.163 320 128V160C320 168.837 312.837 176 304 176C295.163 176 288 168.837 288 160V128Z" fill="#A78BFA"/><path d="M157.333 208H354.667V242.667H157.333V208Z" fill="#EDE9FE"/><rect x="192" y="274.667" width="48" height="48" rx="16" fill="#7C3AED"/><rect x="256" y="274.667" width="64" height="21.333" rx="10.667" fill="#C4B5FD"/><rect x="256" y="306.667" width="45.333" height="21.333" rx="10.667" fill="#DDD6FE"/><circle cx="325.333" cy="336" r="58.667" fill="#06B6D4"/><path d="M325.331 304C327.687 304 329.598 305.91 329.598 308.267V334.233L345.74 343.551C347.782 344.729 348.48 347.344 347.301 349.386C346.123 351.428 343.508 352.126 341.466 350.947L323.198 340.4C321.879 339.639 321.064 338.227 321.064 336.7V308.267C321.064 305.91 322.975 304 325.331 304Z" fill="white"/><defs><linearGradient id="a" x1="96" y1="64" x2="416" y2="448" gradientUnits="userSpaceOnUse"><stop stop-color="#8B5CF6"/><stop offset="1" stop-color="#06B6D4"/></linearGradient></defs></svg>