<svg xmlns="http://www.w3.org/2000/svg" width="512" height="512" viewBox="0 0 512 512" fill="none"><rect width="512" height="512" fill="#6D28D9"/><rect x="48" y="48" width="416" height="416" rx="120" fill="url(#a)"/><circle cx="256" cy="256" r="150" fill="white" fill-opacity=".14"/><path d="M162 188C162 172.536 174.536 160 190 160H322C337.464 160 350 172.536 350 188V324C350 339.464 337.464 352 322 352H190C174.536 352 162 339.464 162 324V188Z" fill="white"/><path d="M194 144C194 135.163 201.163 128 210 128C218.837 128 226 135.163 226 144V174C226 182.837 218.837 190 210 190C201.163 190 194 182.837 194 174V144Z" fill="#C4B5FD"/><path d="M286 144C286 135.163 293.163 128 302 128C310.837 128 318 135.163 318 144V174C318 182.837 310.837 190 302 190C293.163 190 286 182.837 286 174V144Z" fill="#C4B5FD"/><path d="M162 214H350V246H162V214Z" fill="#EDE9FE"/><rect x="196" y="276" width="46" height="46" rx="14" fill="#7C3AED"/><rect x="256" y="278" width="58" height="18" rx="9" fill="#C4B5FD"/><rect x="256" y="306" width="44" height="18" rx="9" fill="#DDD6FE"/><circle cx="329" cy="334" r="54" fill="#06B6D4"/><path d="M329 305C331.209 305 333 306.791 333 309V332.691L348.225 341.481C350.138 342.586 350.794 345.032 349.689 346.946C348.585 348.859 346.138 349.514 344.225 348.41L327 338.464C325.763 337.75 325 336.425 325 334.993V309C325 306.791 326.791 305 329 305Z" fill="white"/><defs><linearGradient id="a" x1="86" y1="64" x2="428" y2="448" gradientUnits="userSpaceOnUse"><stop stop-color="#8B5CF6"/><stop offset="1" stop-color="#06B6D4"/></linearGradient></defs></svg>